#format: frame checksums
#version: 2
#hash: MD5
#tb 0: 1/16000
#media_type 0: audio
#codec_id 0: pcm_s16le
#sample_rate 0: 16000
#channel_layout_name 0: mono
#stream#, dts,        pts, duration,     size, hash
0,          0,          0,     1024,     2048, 1c1386b0e7b879e8167eb977550bdf35
0,       1024,       1024,     1024,     2048, 55e3e29bbe65c0f7407d8834a83a0ade
0,       2048,       2048,     1024,     2048, 571e6fb80021e542142fe01a103ecc69
0,       3072,       3072,     1024,     2048, 83011382b6f414692d92abb686788cb9
0,       4096,       4096,     1024,     2048, 9a06df102b7d1186e762135c8bc6d582
0,       5120,       5120,     1024,     2048, 63e154820e22f2e7d16750ac93ca1eaf
0,       6144,       6144,     1024,     2048, 38f2cdaf82d17ca0eb2846269a9b1a34
0,       7168,       7168,     1024,     2048, fe2ef66ebe4d2c64da3e7c8eb627eae0
0,       8192,       8192,     1024,     2048, cedc08a3942ba23e5c6a3d6f1f74ae6a
0,       9216,       9216,     1024,     2048, 67a8222a02707f4d65c69b939fe84d0b
0,      10240,      10240,     1024,     2048, ed919fe83eaf67228bcde77317a34366
0,      11264,      11264,     1024,     2048, d346b7040d2311b4eaec9385858b7d61
0,      12288,      12288,     1024,     2048, 4f473fb7521a64b5585d0220cb8ca93d
0,      13312,      13312,     1024,     2048, 583cf00b5befd0dc23e9b064135bc1b1
0,      14336,      14336,     1024,     2048, e1cef7e9e31286bfb54a153f1fa295de
0,      15360,      15360,     1024,     2048, f69aaef8f423015293bd0a198f40be49
0,      16384,      16384,     1024,     2048, d98b2fc1ec2405085ccad3eca04c4070
0,      17408,      17408,     1024,     2048, 2429e9f2977c3e49dd723a48113daada
0,      18432,      18432,     1024,     2048, fca575165fea576bf816d8f501ec324c
0,      19456,      19456,     1024,     2048, cbfd2cb1fddda21ff3ed26ea476b10c8
0,      20480,      20480,     1024,     2048, 2b88a5acf3e78d957cab2e5e78f32438
0,      21504,      21504,     1024,     2048, 05d4adc8108f8e29fb852d530c72f410
0,      22528,      22528,     1024,     2048, 08ce6fc3b40d6437867579bc63670982
0,      23552,      23552,     1024,     2048, abf7e3d67c4ea17c73d7a81b647a4918
0,      24576,      24576,     1024,     2048, 801fafd5321f2de57482fee7b5a99313
0,      25600,      25600,     1024,     2048, 5561e036d2d6bb38bad487b0fcda77f1
0,      26624,      26624,     1024,     2048, 0baf5203ef990742cc5bf2bb7fbecc0f
0,      27648,      27648,     1024,     2048, 46b18f50915e4a3d7ff724eb57426ef6
0,      28672,      28672,     1024,     2048, fac33ebf6a43826bf9e87ea8be5e5be7
0,      29696,      29696,     1024,     2048, 45b62acf264b64d0efcc31e0dc0df300
0,      30720,      30720,     1024,     2048, 77d649a81d884cf761fbdd29d18fc8be
0,      31744,      31744,     1024,     2048, 4020b38f123169426fd728d6701d6f75
0,      32768,      32768,     1024,     2048, 7eb47921f532d3ab6c0817ef2b7ddc59
0,      33792,      33792,     1024,     2048, 20065b1dba0a4e908ee84298f2210caf
0,      34816,      34816,     1024,     2048, e778663551390bd2ca9ec147b3a77f3b
0,      35840,      35840,     1024,     2048, 89d00677404385cfbad82377192571c2
0,      36864,      36864,     1024,     2048, f1303f2c04c5cf4262173dc60c9e1cfa
0,      37888,      37888,     1024,     2048, 12a2db77e79f51f9e24e98fff42b2bf4
0,      38912,      38912,     1024,     2048, 1fee254456559dbf69e28b5d967362d0
0,      39936,      39936,     1024,     2048, 52b3a04e0b7445535bc1b8bf07753daf
0,      40960,      40960,     1024,     2048, c38ab46c990628591d0f6013b55bb5db
0,      41984,      41984,     1024,     2048, e0a865817b0e9cac793e5f09e18b14b4
0,      43008,      43008,     1024,     2048, 88a95b613acbfd1f596c2e4d225ba167
0,      44032,      44032,     1024,     2048, 4039e5a57644ba2723f0030a2aa15a9b
0,      45056,      45056,     1024,     2048, 70c01c12732a09aa1e7c70ca936f6ffa
0,      46080,      46080,     1024,     2048, a1628c25a4826846e29fb8885e88fa22
0,      47104,      47104,     1024,     2048, 1dc90bcd1a1895dba9e25d809897a87a
0,      48128,      48128,     1024,     2048, 6c4292138b1424ee6aec7d4641a7f270
0,      49152,      49152,     1024,     2048, 4497951c7ec8f3f5ed1164c632eaf3db
0,      50176,      50176,     1024,     2048, 994f54d0192b3bb2981ce014e0e564ca
0,      51200,      51200,     1024,     2048, 8a01132c029298395e706a8debce84e4
0,      52224,      52224,     1024,     2048, 8e5bb6f201d4808dce5570777e8d3ddc
0,      53248,      53248,     1024,     2048, fff8285921663a23fc77e1abdcde3ae6
0,      54272,      54272,     1024,     2048, 8b9e40400ea39a078243c7f1bc946799
0,      55296,      55296,     1024,     2048, 019ce606c8aa39e1e1322005f50ef9d3
0,      56320,      56320,     1024,     2048, e7a2a8f286292d9055665db2afb10c2f
0,      57344,      57344,     1024,     2048, 405b23de4ef7130bed53f9701d1930a4
0,      58368,      58368,     1024,     2048, 4d298756428abeb55d61bd2a2e2c901c
0,      59392,      59392,     1024,     2048, 689e75a700ad741f3ca2e28db0b543cc
0,      60416,      60416,     1024,     2048, ec3f020ce36d1a948d95da2a6da68b01
0,      61440,      61440,     1024,     2048, b73700c5569ae85b21458992176a3185
0,      62464,      62464,     1024,     2048, d2d4469d9862f444881ff9ea0a742e07
0,      63488,      63488,     1024,     2048, cdd274392300cb0aa20a31455d304481
0,      64512,      64512,     1024,     2048, 1918ba512082dc686401238a9a44b0c4
0,      65536,      65536,     1024,     2048, 70d069d52bb213542b82a8e38cfc9e0f
0,      66560,      66560,     1024,     2048, d4522dfd28f19faffc44fc9c1d59d84b
0,      67584,      67584,     1024,     2048, e61aa07624a499854f5656ae701f50c5
0,      68608,      68608,     1024,     2048, d78e4afffa9241feca9de7aa455a01c1
0,      69632,      69632,     1024,     2048, 149e47c7af5b18d02c304eefa90b142a
0,      70656,      70656,     1024,     2048, 586789edc86cdd48533556188cc495ea
0,      71680,      71680,     1024,     2048, b8d3ebe2af3bda2c0bb641b75e0219a0
0,      72704,      72704,     1024,     2048, e0137eeed9fd48cb6732954ef22c0d10
0,      73728,      73728,     1024,     2048, 231018234f1baa0e6baad582d5d3b0e8
0,      74752,      74752,     1024,     2048, b63c4a19aa58681fa90c8845e5efd399
0,      75776,      75776,     1024,     2048, 184437812369e9eac31b0bdff151993a
0,      76800,      76800,     1024,     2048, bdd31cf8559d30df3fb1cab9147881ed
0,      77824,      77824,     1024,     2048, b3ba69fec17a16aa7bf91bdaba7a3f4c
0,      78848,      78848,     1024,     2048, 2a9e924965f97f0566189842e5506faf
0,      79872,      79872,     1024,     2048, e079c85fec85d3da1e19e7ebb147732e
0,      80896,      80896,     1024,     2048, 40af8f27b9edf3dbbaa54a65e5b53482
0,      81920,      81920,     1024,     2048, ce10bdbfbd9871cfcbe4ef2de8bc161d
0,      82944,      82944,     1024,     2048, 8220ab4d3991849b9bc7576be75529be
0,      83968,      83968,     1024,     2048, 7f8aa0f1b25ba6ed1ea62533d82e0370
0,      84992,      84992,     1024,     2048, a16bfcfa43b6344844a2cfa4ba19fcca
0,      86016,      86016,     1024,     2048, a221853e3cd11df95f28fbc6bfe1c854
0,      87040,      87040,     1024,     2048, d0fe03f1afc203892930183e1001b7dc
0,      88064,      88064,     1024,     2048, fc664bd7be1b1bcd3aca87bc01dd9d50
0,      89088,      89088,     1024,     2048, 556a2e7f518d7719c5811804ca50bf73
0,      90112,      90112,     1024,     2048, a87d843fefd7012779fef452afb2c1ee
0,      91136,      91136,     1024,     2048, 102cc35fbbad0640cd2154af38456398
0,      92160,      92160,     1024,     2048, f8ab28ec788832f134a30631980a4333
0,      93184,      93184,     1024,     2048, 9bff7f32bc2539aae139e947e3c18017
0,      94208,      94208,     1024,     2048, 358ad5cb29882d0f842821b59a379e0d
0,      95232,      95232,      768,     1536, f2e73352561bcfb76805725667ddf970
